HIERARCHY
ROOT Hips
{
	OFFSET 0.000000 83.214638 0.000000
	CHANNELS 6 Xposition Yposition Zposition Xrotation Yrotation Zrotation
	JOINT Pelvis
	{
		OFFSET 0.000000 0.000000 0.000000
		CHANNELS 3 Xrotation Yrotation Zrotation
		JOINT LeftUpLeg
		{
			OFFSET 8.479700 -4.795502 -0.379100
			CHANNELS 3 Xrotation Yrotation Zrotation
			JOINT LeftLeg
			{
				OFFSET 0.024144 -32.555107 0.112900
				CHANNELS 3 Xrotation Yrotation Zrotation
				JOINT LeftFoot
				{
					OFFSET -0.024144 -32.638630 -3.012600
					CHANNELS 3 Xrotation Yrotation Zrotation
					JOINT LeftToeBase
					{
						OFFSET 0.970200 -13.225400 11.864200
						CHANNELS 3 Xrotation Yrotation Zrotation
						End Site
						{
							OFFSET 0.000000 12.319262 0.000000
						}
					}
					JOINT LFootTongue
					{
						OFFSET 1.142400 -1.059800 6.665200
						CHANNELS 3 Xrotation Yrotation Zrotation
						End Site
						{
							OFFSET 0.000000 12.319262 0.000000
						}
					}
				}
				JOINT LeftPantLeg
				{
					OFFSET 0.918482 -16.533964 -2.284700
					CHANNELS 3 Xrotation Yrotation Zrotation
					End Site
					{
						OFFSET 0.350399 24.744368 0.000000
					}
				}
			}
		}
		JOINT RightUpLeg
		{
			OFFSET -8.479700 -4.795502 -0.379100
			CHANNELS 3 Xrotation Yrotation Zrotation
			JOINT RightLeg
			{
				OFFSET -0.023144 -32.555092 0.112900
				CHANNELS 3 Xrotation Yrotation Zrotation
				JOINT RightFoot
				{
					OFFSET 0.023144 -32.638641 -3.012700
					CHANNELS 3 Xrotation Yrotation Zrotation
					JOINT RightToeBase
					{
						OFFSET -0.970200 -13.225400 11.864200
						CHANNELS 3 Xrotation Yrotation Zrotation
						End Site
						{
							OFFSET 0.000000 12.319244 0.000000
						}
					}
					JOINT RFootTongue
					{
						OFFSET -1.142200 -1.059800 6.665200
						CHANNELS 3 Xrotation Yrotation Zrotation
						End Site
						{
							OFFSET 0.000000 12.319243 0.000000
						}
					}
				}
				JOINT RightPantLeg
				{
					OFFSET -0.919482 -16.533978 -2.284800
					CHANNELS 3 Xrotation Yrotation Zrotation
					End Site
					{
						OFFSET -0.350400 24.744419 0.000000
					}
				}
			}
		}
	}
	JOINT Spine
	{
		OFFSET 0.000000 7.722000 1.166200
		CHANNELS 3 Xrotation Yrotation Zrotation
		JOINT Spine1
		{
			OFFSET 0.000000 12.024101 0.248800
			CHANNELS 3 Xrotation Yrotation Zrotation
			JOINT Spine2
			{
				OFFSET 0.000000 11.502998 -0.491200
				CHANNELS 3 Xrotation Yrotation Zrotation
				JOINT Neck
				{
					OFFSET 0.000000 18.430702 -3.123100
					CHANNELS 3 Xrotation Yrotation Zrotation
					JOINT Head
					{
						OFFSET 0.000000 9.051102 1.034000
						CHANNELS 3 Xrotation Yrotation Zrotation
						JOINT HairB
						{
							OFFSET 0.208400 24.786102 24.822300
							CHANNELS 3 Xrotation Yrotation Zrotation
							End Site
							{
								OFFSET 0.000000 32.263779 0.000000
							}
						}
						JOINT HairA
						{
							OFFSET -7.081100 24.428299 23.196600
							CHANNELS 3 Xrotation Yrotation Zrotation
							End Site
							{
								OFFSET 0.000000 32.263779 0.000000
							}
						}
						JOINT Hat
						{
							OFFSET 16.728800 15.048294 -15.439601
							CHANNELS 3 Xrotation Yrotation Zrotation
							End Site
							{
								OFFSET 0.000000 32.263779 0.000000
							}
						}
					}
				}
				JOINT LeftShoulder
				{
					OFFSET 6.197800 13.665199 -4.064700
					CHANNELS 3 Xrotation Yrotation Zrotation
					JOINT LeftArm
					{
						OFFSET 7.778100 -0.187103 -1.709300
						CHANNELS 3 Xrotation Yrotation Zrotation
						JOINT LeftForeArm
						{
							OFFSET 22.049376 0.000000 0.000000
							CHANNELS 3 Xrotation Yrotation Zrotation
							JOINT LeftHand
							{
								OFFSET 23.009392 0.000000 0.000000
								CHANNELS 3 Xrotation Yrotation Zrotation
								JOINT LeftHandThumb1
								{
									OFFSET 3.507191 -2.063065 3.133727
									CHANNELS 3 Xrotation Yrotation Zrotation
									JOINT LeftHandThumb2
									{
										OFFSET 3.101337 -1.790558 1.790558
										CHANNELS 3 Xrotation Yrotation Zrotation
										JOINT LeftHandThumb3
										{
											OFFSET 3.058640 -1.765907 1.765906
											CHANNELS 3 Xrotation Yrotation Zrotation
											End Site
											{
												OFFSET -0.415260 3.926476 -0.049563
											}
										}
									}
								}
								JOINT LeftHandIndex1
								{
									OFFSET 11.334419 -0.901459 3.706815
									CHANNELS 3 Xrotation Yrotation Zrotation
									JOINT LeftHandIndex2
									{
										OFFSET 3.283112 0.000000 0.000000
										CHANNELS 3 Xrotation Yrotation Zrotation
										JOINT LeftHandIndex3
										{
											OFFSET 3.323853 0.000000 0.000000
											CHANNELS 3 Xrotation Yrotation Zrotation
											End Site
											{
												OFFSET -1.135597 3.097809 0.402452
											}
										}
									}
								}
								JOINT LeftHandMiddle1
								{
									OFFSET 11.335861 0.000000 0.000000
									CHANNELS 3 Xrotation Yrotation Zrotation
									JOINT LeftHandMiddle2
									{
										OFFSET 3.410492 0.000000 0.000000
										CHANNELS 3 Xrotation Yrotation Zrotation
										JOINT LeftHandMiddle3
										{
											OFFSET 3.312172 0.000000 0.000000
											CHANNELS 3 Xrotation Yrotation Zrotation
											End Site
											{
												OFFSET -1.150200 3.080154 0.400270
											}
										}
									}
								}
								JOINT LeftHandRing1
								{
									OFFSET 11.514786 -0.013176 -3.003090
									CHANNELS 3 Xrotation Yrotation Zrotation
									JOINT LeftHandRing2
									{
										OFFSET 3.053307 0.000000 0.000000
										CHANNELS 3 Xrotation Yrotation Zrotation
										JOINT LeftHandRing3
										{
											OFFSET 3.295807 0.000000 0.000000
											CHANNELS 3 Xrotation Yrotation Zrotation
											End Site
											{
												OFFSET -1.281006 3.013344 0.375733
											}
										}
									}
								}
								JOINT LeftHandPinky1
								{
									OFFSET 10.518692 -0.960396 -5.730441
									CHANNELS 3 Xrotation Yrotation Zrotation
									JOINT LeftHandPinky2
									{
										OFFSET 2.861649 0.000000 0.000000
										CHANNELS 3 Xrotation Yrotation Zrotation
										JOINT LeftHandPinky3
										{
											OFFSET 2.863380 0.000000 0.000000
											CHANNELS 3 Xrotation Yrotation Zrotation
											End Site
											{
												OFFSET -0.843597 2.711159 0.369971
											}
										}
									}
								}
							}
							JOINT LSleeve
							{
								OFFSET 6.676277 -0.344902 -1.011730
								CHANNELS 3 Xrotation Yrotation Zrotation
								End Site
								{
									OFFSET 0.000000 14.885353 0.000000
								}
							}
						}
					}
				}
				JOINT RightShoulder
				{
					OFFSET -6.197800 13.665199 -4.064700
					CHANNELS 3 Xrotation Yrotation Zrotation
					JOINT RightArm
					{
						OFFSET -7.778100 -0.187103 -1.709300
						CHANNELS 3 Xrotation Yrotation Zrotation
						JOINT RightForeArm
						{
							OFFSET -22.049376 0.000000 0.000000
							CHANNELS 3 Xrotation Yrotation Zrotation
							JOINT RightHand
							{
								OFFSET -23.009392 0.000000 0.000000
								CHANNELS 3 Xrotation Yrotation Zrotation
								JOINT RightHandThumb1
								{
									OFFSET -3.507191 -2.063065 3.133727
									CHANNELS 3 Xrotation Yrotation Zrotation
									JOINT RightHandThumb2
									{
										OFFSET -3.101337 -1.790558 1.790558
										CHANNELS 3 Xrotation Yrotation Zrotation
										JOINT RightHandThumb3
										{
											OFFSET -3.058640 -1.765907 1.765906
											CHANNELS 3 Xrotation Yrotation Zrotation
											End Site
											{
												OFFSET 0.415260 3.926476 -0.049563
											}
										}
									}
								}
								JOINT RightHandIndex1
								{
									OFFSET -11.334419 -0.901459 3.706815
									CHANNELS 3 Xrotation Yrotation Zrotation
									JOINT RightHandIndex2
									{
										OFFSET -3.283112 0.000000 0.000000
										CHANNELS 3 Xrotation Yrotation Zrotation
										JOINT RightHandIndex3
										{
											OFFSET -3.323853 0.000000 0.000000
											CHANNELS 3 Xrotation Yrotation Zrotation
											End Site
											{
												OFFSET 1.135597 3.097809 0.402452
											}
										}
									}
								}
								JOINT RightHandMiddle1
								{
									OFFSET -11.335861 0.000000 0.000000
									CHANNELS 3 Xrotation Yrotation Zrotation
									JOINT RightHandMiddle2
									{
										OFFSET -3.410492 0.000000 0.000000
										CHANNELS 3 Xrotation Yrotation Zrotation
										JOINT RightHandMiddle3
										{
											OFFSET -3.312172 0.000000 0.000000
											CHANNELS 3 Xrotation Yrotation Zrotation
											End Site
											{
												OFFSET 1.150200 3.080154 0.400270
											}
										}
									}
								}
								JOINT RightHandRing1
								{
									OFFSET -11.514786 -0.013176 -3.003090
									CHANNELS 3 Xrotation Yrotation Zrotation
									JOINT RightHandRing2
									{
										OFFSET -3.053307 0.000000 0.000000
										CHANNELS 3 Xrotation Yrotation Zrotation
										JOINT RightHandRing3
										{
											OFFSET -3.295807 0.000000 0.000000
											CHANNELS 3 Xrotation Yrotation Zrotation
											End Site
											{
												OFFSET 1.281006 3.013344 0.375733
											}
										}
									}
								}
								JOINT RightHandPinky1
								{
									OFFSET -10.518692 -0.960396 -5.730441
									CHANNELS 3 Xrotation Yrotation Zrotation
									JOINT RightHandPinky2
									{
										OFFSET -2.861649 0.000000 0.000000
										CHANNELS 3 Xrotation Yrotation Zrotation
										JOINT RightHandPinky3
										{
											OFFSET -2.863380 0.000000 0.000000
											CHANNELS 3 Xrotation Yrotation Zrotation
											End Site
											{
												OFFSET 0.843597 2.711159 0.369971
											}
										}
									}
								}
							}
							JOINT RSleeve
							{
								OFFSET -6.676277 -0.344902 -1.011730
								CHANNELS 3 Xrotation Yrotation Zrotation
								End Site
								{
									OFFSET 0.000000 14.885353 0.000000
								}
							}
						}
					}
				}
				JOINT Backpack
				{
					OFFSET 0.000000 -2.471497 36.677502
					CHANNELS 3 Xrotation Yrotation Zrotation
					End Site
					{
						OFFSET 0.000000 20.427315 0.000000
					}
				}
				JOINT Hood
				{
					OFFSET 0.000000 18.754097 -10.431000
					CHANNELS 3 Xrotation Yrotation Zrotation
					JOINT Hood1
					{
						OFFSET 0.000000 -5.011002 -7.685901
						CHANNELS 3 Xrotation Yrotation Zrotation
						End Site
						{
							OFFSET 0.000000 9.175140 0.000000
						}
					}
				}
				JOINT LHoodieString
				{
					OFFSET 5.250500 16.397697 3.089900
					CHANNELS 3 Xrotation Yrotation Zrotation
					JOINT LHoodieString1
					{
						OFFSET 0.257700 -6.364304 3.694600
						CHANNELS 3 Xrotation Yrotation Zrotation
						JOINT LHoodieString2
						{
							OFFSET 0.000000 -9.643799 2.679100
							CHANNELS 3 Xrotation Yrotation Zrotation
							End Site
							{
								OFFSET 0.000000 10.009018 0.000000
							}
						}
					}
				}
				JOINT RHoodieString
				{
					OFFSET -5.250500 16.397697 3.089900
					CHANNELS 3 Xrotation Yrotation Zrotation
					JOINT RHoodieString1
					{
						OFFSET -0.257700 -6.364304 3.694600
						CHANNELS 3 Xrotation Yrotation Zrotation
						JOINT RHoodieString2
						{
							OFFSET 0.000000 -9.643799 2.679100
							CHANNELS 3 Xrotation Yrotation Zrotation
							End Site
							{
								OFFSET 0.000000 10.009018 0.000000
							}
						}
					}
				}
			}
			JOINT LBackpack_Strap
			{
				OFFSET 15.223200 -7.719803 -6.610900
				CHANNELS 3 Xrotation Yrotation Zrotation
				End Site
				{
					OFFSET 0.000000 16.040596 0.000000
				}
			}
			JOINT RBackpack_Strap
			{
				OFFSET -15.223000 -7.719803 -6.610900
				CHANNELS 3 Xrotation Yrotation Zrotation
				End Site
				{
					OFFSET 0.000000 16.040596 0.000000
				}
			}
		}
	}
	JOINT BoyFacialAnim_Joint
	{
		OFFSET 1.000000 -82.208099 -1.550900
		CHANNELS 3 Xrotation Yrotation Zrotation
		End Site
		{
			OFFSET 0.000000 30.012791 0.000000
		}
	}
}
MOTION
Frames: 4
Frame Time: 0.033333
0.434818 37.822151 0.288405 -12.291923 -30.334339 -3.832750 -0.000000 0.000001 -0.000000 -29.163863 2.513693 26.263937 123.955694 -0.568813 -3.111896 32.734208 14.449279 16.169901 0.000001 -0.000002 -0.000003 0.000001 -0.000002 -0.000003 -0.000001 0.000000 0.000000 -73.571301 23.402286 8.974185 138.370275 3.905649 3.104184 -55.994348 -6.955191 14.775014 -0.000000 -0.000000 0.000000 -0.000000 -0.000000 0.000000 -0.000001 0.000001 -0.000000 11.809278 2.599853 -0.516046 23.996195 5.990391 -5.549931 23.996186 5.990385 -5.549928 -17.962161 29.183240 -5.220597 -16.247246 43.114572 -6.896600 -0.000000 0.000003 -0.000001 -0.000000 0.000003 -0.000001 -0.000000 0.000003 -0.000001 -0.026803 0.184905 0.260094 22.514332 -24.371486 -56.435295 0.745707 -85.399733 0.391961 46.947794 -18.382973 48.992493 -6.866820 -1.209373 10.370646 2.323735 6.713772 2.165336 -0.000002 -0.000002 0.000001 0.131626 -0.410987 -33.102987 0.088226 0.809834 -19.883565 -0.000002 0.000003 -0.000001 -0.444056 -0.309926 -24.229850 -0.362801 -1.291405 -22.471389 0.000000 -0.000004 0.000001 -4.060812 0.376161 -20.834517 -0.125769 -1.645699 -13.249309 0.000001 0.000000 -0.000004 -1.946030 0.608432 -11.253345 -0.387673 -5.150720 -19.738408 -0.000003 -0.000005 -0.000003 -0.000002 0.000003 0.000001 -0.024075 0.477090 0.156013 -54.742556 -22.607445 35.291844 3.246668 97.339498 -3.089141 12.423742 -2.743827 24.855156 -11.461730 5.277573 -12.333600 2.401152 -6.648132 -2.112740 -0.000001 0.000003 -0.000001 -9.546345 7.106392 44.036350 0.299260 -1.504291 28.037327 -0.000001 0.000001 0.000002 -2.212438 0.877824 45.451487 -0.678905 1.579518 35.862356 0.000001 -0.000001 -0.000002 -4.939384 -0.779076 47.902050 -1.333308 4.323367 38.390362 -0.000003 -0.000001 0.000000 -8.765152 -1.142083 46.631317 -1.554831 8.222539 32.552384 -0.000002 0.000002 -0.000005 0.000003 -0.000004 -0.000003 -0.000002 -0.000001 0.000002 -0.000002 -0.000001 0.000002 -0.000002 -0.000001 0.000002 -0.000002 -0.000001 0.000002 -0.000002 -0.000001 0.000001 -0.000003 -0.000000 0.000001 -0.000002 -0.000001 0.000002 -0.000002 -0.000001 0.000001 -0.000003 -0.000000 0.000001 0.000003 0.000001 0.000001 0.000003 0.000001 0.000001 -0.000000 0.000001 -0.000000 
0.422179 37.864937 0.294927 -12.317933 -30.332344 -3.838759 -0.000000 0.000002 0.000000 -29.123811 2.552758 26.267748 123.866095 -0.571576 -3.112340 32.796591 14.490294 16.171347 -0.000002 0.000002 -0.000001 -0.000002 0.000002 -0.000001 0.000001 0.000001 -0.000000 -73.439895 23.345658 8.898269 138.304309 3.898667 3.104193 -56.021013 -6.909083 14.707177 -0.000000 -0.000000 -0.000000 -0.000000 -0.000000 -0.000000 -0.000000 -0.000000 -0.000001 11.804560 2.587838 -0.521018 23.985471 5.966710 -5.559580 23.985446 5.966716 -5.559579 -18.180915 29.350166 -4.785414 -15.749168 43.309225 -7.394530 -0.000000 -0.000001 0.000000 -0.000000 -0.000001 0.000000 -0.000000 -0.000001 0.000000 -0.032785 0.229752 0.320976 22.506074 -24.389870 -56.496801 0.745395 -85.364100 0.391236 46.903148 -18.393566 49.008636 -6.854973 -1.181289 10.368105 2.324755 6.713459 2.163108 -0.000003 -0.000001 0.000004 0.131103 -0.411701 -33.049079 0.088411 0.810202 -19.907519 -0.000002 0.000003 -0.000003 -0.443887 -0.309517 -24.224410 -0.362610 -1.290982 -22.465940 0.000003 -0.000001 -0.000000 -4.056827 0.384186 -20.870312 -0.126791 -1.650060 -13.302113 -0.000002 0.000000 -0.000004 -1.954001 0.620056 -11.306439 -0.390399 -5.158149 -19.806599 0.000000 0.000004 0.000002 -0.000000 0.000001 0.000001 -0.031601 0.607545 0.192144 -54.641414 -22.623347 35.242024 3.261396 97.305040 -3.103048 12.453468 -2.575571 24.672197 -11.437673 5.244134 -12.328767 2.420581 -6.630732 -2.099012 0.000000 0.000000 -0.000001 -9.495488 7.053996 43.956372 0.299527 -1.505051 28.034146 -0.000004 -0.000002 0.000005 -2.205001 0.860202 45.401200 -0.677989 1.578470 35.841254 -0.000001 0.000001 -0.000000 -4.928380 -0.758404 47.887375 -1.332426 4.322153 38.375708 -0.000002 0.000006 0.000003 -8.735723 -1.137289 46.619432 -1.558356 8.228621 32.594708 -0.000001 0.000004 -0.000001 -0.000000 -0.000000 -0.000001 -0.000001 -0.000000 0.000000 -0.000001 -0.000000 0.000000 -0.000001 -0.000000 0.000000 -0.000001 -0.000000 0.000000 -0.000001 -0.000000 0.000000 -0.000003 0.000001 -0.000000 -0.000001 -0.000000 0.000000 -0.000001 -0.000000 0.000000 -0.000003 0.000001 -0.000000 -0.000000 -0.000001 -0.000001 -0.000000 -0.000001 -0.000001 -0.000000 0.000002 0.000000 
0.395373 37.935776 0.311488 -12.361287 -30.334424 -3.844924 -0.000001 -0.000001 -0.000000 -29.038491 2.629176 26.285478 123.709670 -0.575834 -3.112997 32.882252 14.548066 16.183720 0.000001 0.000003 -0.000001 0.000001 0.000003 -0.000001 -0.000000 0.000000 -0.000001 -73.206739 23.252373 8.772686 138.199439 3.886132 3.104106 -56.085549 -6.831808 14.588797 -0.000000 0.000001 -0.000000 -0.000000 0.000001 -0.000000 0.000002 0.000002 -0.000001 11.795317 2.568263 -0.531213 23.964934 5.928881 -5.577733 23.964929 5.928891 -5.577733 -18.558659 29.633828 -4.046837 -14.915905 43.615969 -8.221547 0.000000 0.000001 0.000000 0.000000 0.000001 0.000000 0.000000 0.000001 0.000000 -0.040990 0.297740 0.409778 22.503687 -24.407901 -56.586239 0.747649 -85.318570 0.392869 46.808557 -18.385551 49.020001 -6.835673 -1.135521 10.363935 2.326466 6.712956 2.159508 -0.000001 -0.000001 -0.000001 0.130269 -0.412898 -32.961168 0.088695 0.810805 -19.946584 0.000000 0.000004 -0.000001 -0.443576 -0.308855 -24.215548 -0.362357 -1.290340 -22.457088 0.000001 -0.000004 0.000001 -4.050255 0.397233 -20.928642 -0.128487 -1.657172 -13.388183 -0.000002 -0.000001 -0.000000 -1.966962 0.638981 -11.392995 -0.394900 -5.170290 -19.917776 0.000002 0.000000 -0.000000 0.000000 0.000001 -0.000001 -0.044151 0.814312 0.244074 -54.451907 -22.663956 35.182923 3.282258 97.260036 -3.122729 12.509538 -2.293880 24.362479 -11.398497 5.189699 -12.320817 2.449264 -6.604573 -2.078916 0.000001 0.000003 0.000000 -9.413668 6.973630 43.824751 0.300015 -1.506486 28.026044 -0.000002 -0.000002 0.000005 -2.193399 0.832720 45.321816 -0.676474 1.576753 35.806594 -0.000001 0.000001 0.000002 -4.910114 -0.729490 47.866054 -1.331035 4.320154 38.352175 -0.000000 -0.000003 -0.000000 -8.687960 -1.130655 46.604505 -1.564389 8.238888 32.666097 0.000000 0.000004 -0.000003 -0.000002 0.000001 0.000002 0.000001 -0.000000 0.000000 0.000001 -0.000000 0.000000 0.000001 -0.000000 0.000000 0.000001 -0.000000 0.000000 0.000001 -0.000000 0.000000 -0.000001 0.000000 -0.000001 0.000001 -0.000000 0.000000 0.000001 -0.000000 0.000000 -0.000001 0.000000 -0.000001 -0.000001 -0.000001 0.000000 -0.000001 -0.000001 0.000000 -0.000001 -0.000001 -0.000000 
0.352192 38.026680 0.344808 -12.417163 -30.337651 -3.846257 0.000001 -0.000002 -0.000000 -28.897123 2.748193 26.334298 123.496459 -0.580206 -3.113673 32.954430 14.604722 16.230147 0.000001 0.000003 -0.000003 0.000001 0.000003 -0.000003 -0.000001 0.000000 0.000000 -72.869253 23.139807 8.610311 138.071728 3.869185 3.103887 -56.211484 -6.742042 14.432115 -0.000000 -0.000000 0.000000 -0.000000 -0.000000 0.000000 0.000001 -0.000000 -0.000002 11.780720 2.542463 -0.546562 23.932932 5.880678 -5.602090 23.932942 5.880674 -5.602089 -19.069092 30.008603 -3.071729 -13.837090 43.978645 -9.282074 0.000000 0.000002 -0.000000 0.000000 0.000002 -0.000000 0.000000 0.000002 -0.000000 -0.048041 0.371907 0.499089 22.523322 -24.406849 -56.674584 0.754152 -85.284262 0.398937 46.644475 -18.329923 49.007885 -6.811428 -1.078096 10.358689 2.328570 6.712351 2.154971 0.000002 -0.000001 -0.000001 0.129224 -0.414381 -32.850867 0.089021 0.811534 -19.995597 0.000001 -0.000002 -0.000000 -0.443198 -0.308011 -24.204411 -0.362009 -1.289475 -22.445960 0.000003 -0.000003 0.000001 -4.041954 0.413602 -21.001845 -0.130647 -1.666118 -13.496205 -0.000000 0.000001 -0.000002 -1.983096 0.662748 -11.501597 -0.400599 -5.185501 -20.057305 -0.000000 -0.000001 -0.000007 0.000005 -0.000002 -0.000002 -0.060434 1.060788 0.295276 -54.169834 -22.744023 35.151289 3.298776 97.216760 -3.137826 12.589817 -1.924607 23.956948 -11.349361 5.121392 -12.310740 2.480668 -6.575088 -2.057215 -0.000001 0.000001 -0.000002 -9.313217 6.882266 43.658371 0.300564 -1.508351 28.011895 -0.000003 0.000003 0.000001 -2.179812 0.800323 45.227112 -0.674554 1.574575 35.762771 -0.000002 0.000003 0.000002 -4.886637 -0.701087 47.843488 -1.329386 4.317742 38.324072 0.000001 -0.000002 0.000002 -8.628289 -1.125034 46.593536 -1.572489 8.252233 32.759127 -0.000001 0.000002 -0.000001 -0.000002 -0.000002 0.000001 -0.000002 -0.000000 0.000000 -0.000002 -0.000000 0.000000 -0.000002 -0.000000 0.000000 -0.000002 -0.000000 0.000000 -0.000002 -0.000000 0.000000 -0.000004 0.000000 0.000001 -0.000002 -0.000000 0.000000 -0.000002 -0.000000 0.000000 -0.000004 0.000000 0.000001 0.000001 -0.000001 -0.000001 0.000001 -0.000001 -0.000001 0.000001 -0.000002 -0.000000 
